# xmcd
#
# Track frame offsets:
#	150
#	19502
#	41331
#	58460
#	83535
#	109687
#	129964
#	148912
#	173937
#	191532
#
# Disc length: 2832 seconds
# Revision: 0
# Processed by: cddbd v1.5.2PL0 Copyright (c) Steve Scherf et al.
# Submitted via: dBpowerAMP V12.0
#
DISCID=810b0e0a
DTITLE=Dan Bubien and the Delta Struts - Thieves and Yesterdays
DYEAR=2019
DGENRE=Americana
TTITLE0=Falling to the Ground
TTITLE1=Gotta Hold On Me
TTITLE2=Thieves and Yesterdays
TTITLE3=Shake That Thing
TTITLE4=After the Rain
TTITLE5=Shirley
TTITLE6=Memphis Sky
TTITLE7=Heavy Toll
TTITLE8=I Gotta Reason
TTITLE9=Green Eyed Girl
EXTD=
EXTT0=
EXTT1=
EXTT2=
EXTT3=
EXTT4=
EXTT5=
EXTT6=
EXTT7=
EXTT8=
EXTT9=
PLAYORDER=
